<svg xmlns="http://www.w3.org/2000/svg" fill="none" viewBox="0 0 16 16"><mask id="a" fill="#fff"><path d="M15.893 8.534c-.106.96-.32 1.92-.64 2.666l-.32.64c-.106.213-.213.32-.32.534-.213.32-.533.64-.746.96l-.427.426c-.96.854-2.026 1.494-3.2 1.813-.533.214-1.173.214-1.813.32H6.934c-1.6-.213-3.094-.96-4.374-2.133C1.067 12.374.214 10.56.107 8.534h5.12c.106.64.426 1.173.96 1.706.514.413 1.153.64 1.813.64.64 0 1.28-.214 1.814-.64l.64-.64.002-.004c.106-.212.211-.424.211-.636.107-.106.107-.32.107-.426h5.12Z"/><path fill-rule="evenodd" d="M15.893 7.574h-5.12c-.106-.747-.426-1.28-.96-1.814C9.28 5.334 8.748 5.12 8 5.12c-.747 0-1.28.214-1.813.64A3.91 3.91 0 0 0 5.12 7.574H.107c.106-2.134.96-3.84 2.453-5.334C4.054.854 5.76.107 7.787.107h.426c2.027 0 3.734.746 5.227 2.133a7.11 7.11 0 0 1 2.026 2.987c.214.64.427 1.493.427 2.346Z" clip-rule="evenodd"/><path fill-rule="evenodd" d="M8 6.294c1.174 0 1.814.533 1.814 1.706S9.174 9.814 8 9.814c-1.173 0-1.813-.64-1.813-1.814 0-1.173.64-1.706 1.813-1.706Z" clip-rule="evenodd"/></mask><path fill="#fff" d="M15.893 8.534c-.106.96-.32 1.92-.64 2.666l-.32.64c-.106.213-.213.32-.32.534-.213.32-.533.64-.746.96l-.427.426c-.96.854-2.026 1.494-3.2 1.813-.533.214-1.173.214-1.813.32H6.934c-1.6-.213-3.094-.96-4.374-2.133C1.067 12.374.214 10.56.107 8.534h5.12c.106.64.426 1.173.96 1.706.514.413 1.153.64 1.813.64.64 0 1.28-.214 1.814-.64l.64-.64.002-.004c.106-.212.211-.424.211-.636.107-.106.107-.32.107-.426h5.12Z"/><path fill="#999" fill-rule="evenodd" d="M15.893 7.574h-5.12c-.106-.747-.426-1.28-.96-1.814C9.28 5.334 8.748 5.12 8 5.12c-.747 0-1.28.214-1.813.64A3.91 3.91 0 0 0 5.12 7.574H.107c.106-2.134.96-3.84 2.453-5.334C4.054.854 5.76.107 7.787.107h.426c2.027 0 3.734.746 5.227 2.133a7.11 7.11 0 0 1 2.026 2.987c.214.64.427 1.493.427 2.346Z" clip-rule="evenodd"/><path fill="#999" fill-rule="evenodd" d="M8 6.294c1.174 0 1.814.533 1.814 1.706S9.174 9.814 8 9.814c-1.173 0-1.813-.64-1.813-1.814 0-1.173.64-1.706 1.813-1.706Z" clip-rule="evenodd"/><path fill="#999" d="m15.893 8.534.994.11.124-1.11h-1.117v1Zm-.64 2.666.895.447.013-.026.012-.027-.92-.394Zm-.32.64-.894-.447.895.447Zm-.32.534.832.554.035-.052.028-.056-.894-.447Zm-.746.96.707.707.07-.07.056-.083-.833-.554Zm-.427.426.665.747.022-.02.02-.02-.707-.707Zm-3.2 1.813-.263-.964-.055.015-.053.021.372.928Zm-1.813.32v1h.083l.081-.013-.164-.986Zm-1.493 0-.133.992.066.008h.067v-1ZM2.56 13.76l-.68.733.004.004.676-.737ZM.107 8.534v-1H-.948l.056 1.052.999-.052Zm5.12 0 .986-.165-.14-.835h-.846v1Zm.96 1.706-.707.707.038.039.042.033.627-.779ZM8 10.88l-.001 1H8v-1Zm1.814-.64.624.781.043-.035.04-.039-.707-.707Zm.64-.64.707.707.13-.131.076-.17-.914-.406Zm.002-.004-.895-.448-.01.02-.01.021.915.407Zm.211-.636-.707-.707-.293.293v.414h1Zm.107-.426v-1h-1v1h1Zm5.12-.96v1l.447-1.895-.448.895Zm-5.12 0-.99.14.122.86h.867v-1Zm-.96-1.814.707-.707-.04-.04-.043-.034-.624.781Zm-3.627 0-.625-.781-.043.035-.04.039.708.707ZM5.12 7.574v1h.755l.207-.726-.962-.274Zm-5.013 0-1-.05-.052 1.05H.107v-1ZM2.56 2.24l-.68-.733-.014.013-.013.013.707.707Zm10.88 0-.681.733.008.007.008.007.665-.747Zm2.026 2.987.949-.317-.005-.013-.004-.012-.94.342Zm.427 2.346h-1v.618l.552.276.447-.894Zm-.993.85c-.1.901-.297 1.757-.566 2.383l1.839.788c.371-.867.601-1.931.714-2.95l-1.987-.22Zm-.54 2.33-.32.64 1.788.894.32-.64-1.789-.894Zm-.321.64a1.402 1.402 0 0 1-.097.159c-.054.08-.14.206-.223.375l1.79.893c.022-.045.043-.078.096-.158.054-.08.14-.207.223-.376l-1.79-.892Zm-.257.425a5.03 5.03 0 0 1-.31.395c-.126.151-.296.353-.437.566l1.665 1.109c.07-.107.167-.225.308-.394.126-.15.296-.353.437-.566l-1.663-1.11Zm-.622.808-.427.427 1.415 1.414.426-.426-1.414-1.415Zm-.384.387c-.872.775-1.806 1.325-2.799 1.596l.527 1.93c1.354-.37 2.553-1.1 3.6-2.032l-1.328-1.494ZM9.87 14.645c-.147.059-.34.1-.625.137-.237.03-.646.07-.981.125l.328 1.973c.305-.05.536-.066.912-.115a4.542 4.542 0 0 0 1.109-.263l-.743-1.857Zm-1.442.248H6.934v2h1.493v-2Zm-1.361.01c-1.372-.184-2.681-.827-3.83-1.88l-1.352 1.474c1.411 1.293 3.089 2.144 4.917 2.388l.265-1.983ZM3.24 13.026c-1.304-1.211-2.042-2.781-2.135-4.546l-1.997.105c.12 2.288 1.09 4.345 2.772 5.907l1.36-1.466ZM.107 9.534h5.12v-2H.107v2Zm4.133-.836c.15.902.605 1.615 1.24 2.25l1.413-1.415c-.432-.432-.617-.786-.68-1.164l-1.973.329Zm1.32 2.321c.691.556 1.552.86 2.439.861l.002-2c-.432 0-.851-.148-1.188-.42L5.56 11.02ZM8 11.88c.864 0 1.725-.289 2.438-.859L9.189 9.46A1.898 1.898 0 0 1 8 9.88v2Zm2.52-.933.64-.64-1.414-1.414-.64.64 1.415 1.414Zm.847-.94.002-.005-1.827-.813-.002.005 1.827.812Zm-.017.036c.078-.155.317-.59.317-1.083h-2c0-.057.014-.076-.003-.033a1.2 1.2 0 0 1-.036.085l-.067.136 1.789.895Zm.024-.376c.275-.275.348-.607.373-.756.028-.172.027-.33.027-.377h-2c0 .058-.002.06 0 .049a.462.462 0 0 1 .029-.098.713.713 0 0 1 .157-.232l1.414 1.414Zm-.6-.133h5.12v-2h-5.12v2Zm5.12-2.96h-5.12v2h5.12v-2Zm-4.13.858c-.144-1.008-.594-1.73-1.243-2.38L9.106 6.468c.418.418.608.763.678 1.248l1.98-.283ZM10.438 4.98C9.74 4.42 8.99 4.12 8 4.12v2c.504 0 .82.126 1.19.421l1.248-1.562ZM8 4.12c-.99 0-1.74.301-2.438.859L6.811 6.54c.37-.295.685-.421 1.189-.421v-2Zm-2.52.933a4.905 4.905 0 0 0-1.322 2.246l1.924.549c.165-.58.396-.966.812-1.38L5.479 5.052Zm-.36 1.52H.107v2H5.12v-2Zm-4.015 1.05c.093-1.856.822-3.335 2.162-4.676L1.853 1.533C.206 3.179-.772 5.113-.892 7.523l1.997.1Zm2.135-4.65c1.33-1.235 2.8-1.866 4.547-1.866v-2c-2.307 0-4.25.862-5.907 2.4l1.36 1.466Zm4.547-1.866h.426v-2h-.426v2Zm.426 0c1.747 0 3.217.631 4.546 1.866l1.361-1.466c-1.657-1.54-3.6-2.4-5.907-2.4v2Zm4.562 1.88a6.11 6.11 0 0 1 1.751 2.581l1.88-.683a8.108 8.108 0 0 0-2.302-3.392l-1.329 1.494Zm1.742 2.556c.197.59.376 1.328.376 2.03h2c0-1.004-.248-1.973-.478-2.663l-1.898.633Zm.928 2.924h.001l.895-1.788h-.001l-.895 1.788ZM8 7.294c.455 0 .622.105.673.151.033.031.14.146.14.555h2c0-.764-.212-1.502-.792-2.032C9.46 5.455 8.72 5.294 8 5.294v2ZM8.814 8c0 .41-.11.575-.174.64-.065.064-.23.174-.64.174v2c.763 0 1.505-.211 2.054-.76.549-.55.76-1.291.76-2.054h-2ZM8 8.814c-.41 0-.575-.11-.64-.174-.064-.065-.173-.23-.173-.64h-2c0 .763.21 1.505.76 2.054.548.549 1.29.76 2.053.76v-2ZM7.187 8c0-.41.107-.524.14-.555.051-.046.218-.151.673-.151v-2c-.718 0-1.458.16-2.021.674-.58.53-.792 1.268-.792 2.032h2Z" mask="url(#a)"/></svg>