<svg xmlns="http://www.w3.org/2000/svg" fill="none" viewBox="0 0 32 32"><mask id="a" fill="#fff"><path d="M31.787 17.067c-.213 1.92-.64 3.84-1.28 5.333l-.64 1.28c-.213.427-.427.64-.64 1.067-.427.64-1.067 1.28-1.493 1.92l-.853.853c-1.92 1.707-4.053 2.987-6.4 3.627-1.067.427-2.347.427-3.627.64h-2.987c-3.2-.427-6.187-1.92-8.747-4.267C2.133 24.747.427 21.12.213 17.067h10.24c.213 1.28.853 2.347 1.92 3.413A5.797 5.797 0 0 0 16 21.76c1.28 0 2.56-.427 3.627-1.28l1.28-1.28.004-.009c.212-.424.423-.847.423-1.271.213-.213.213-.64.213-.853h10.24Z"/><path fill-rule="evenodd" d="M31.787 15.147h-10.24c-.213-1.493-.853-2.56-1.92-3.627-1.067-.853-2.133-1.28-3.627-1.28-1.494 0-2.56.427-3.627 1.28-1.067 1.067-1.707 2.133-2.133 3.627H.213C.426 10.88 2.133 7.467 5.12 4.48 8.107 1.707 11.52.213 15.573.213h.853c4.053 0 7.467 1.493 10.453 4.267 1.92 1.707 3.2 3.627 4.053 5.973.427 1.28.853 2.987.853 4.693l.002.001Z" clip-rule="evenodd"/><path fill-rule="evenodd" d="M16 12.587c2.347 0 3.627 1.067 3.627 3.413s-1.28 3.627-3.627 3.627c-2.347 0-3.627-1.28-3.627-3.627 0-2.347 1.28-3.413 3.627-3.413Z" clip-rule="evenodd"/></mask><path fill="#fff" d="M31.787 17.067c-.213 1.92-.64 3.84-1.28 5.333l-.64 1.28c-.213.427-.427.64-.64 1.067-.427.64-1.067 1.28-1.493 1.92l-.853.853c-1.92 1.707-4.053 2.987-6.4 3.627-1.067.427-2.347.427-3.627.64h-2.987c-3.2-.427-6.187-1.92-8.747-4.267C2.133 24.747.427 21.12.213 17.067h10.24c.213 1.28.853 2.347 1.92 3.413A5.797 5.797 0 0 0 16 21.76c1.28 0 2.56-.427 3.627-1.28l1.28-1.28.004-.009c.212-.424.423-.847.423-1.271.213-.213.213-.64.213-.853h10.24Z"/><path fill="#CF3026" fill-rule="evenodd" d="M31.787 15.147h-10.24c-.213-1.493-.853-2.56-1.92-3.627-1.067-.853-2.133-1.28-3.627-1.28-1.494 0-2.56.427-3.627 1.28-1.067 1.067-1.707 2.133-2.133 3.627H.213C.426 10.88 2.133 7.467 5.12 4.48 8.107 1.707 11.52.213 15.573.213h.853c4.053 0 7.467 1.493 10.453 4.267 1.92 1.707 3.2 3.627 4.053 5.973.427 1.28.853 2.987.853 4.693l.002.001Z" clip-rule="evenodd"/><path fill="#000" fill-rule="evenodd" d="M16 12.587c2.347 0 3.627 1.067 3.627 3.413s-1.28 3.627-3.627 3.627c-2.347 0-3.627-1.28-3.627-3.627 0-2.347 1.28-3.413 3.627-3.413Z" clip-rule="evenodd"/><path fill="#000" d="m31.787 17.067.994.11.123-1.11h-1.117v1Zm-1.28 5.333.894.447.014-.026.011-.027-.919-.394Zm-.64 1.28-.894-.447.894.447Zm-.64 1.067.832.555.035-.052.028-.057-.895-.446Zm-1.493 1.92.707.707.07-.07.056-.083-.833-.554Zm-.853.853.665.747.021-.02.021-.02-.707-.707Zm-6.4 3.627-.263-.965-.055.015-.053.022.371.928Zm-3.627.64v1h.083l.081-.014-.164-.986Zm-2.987 0-.132.991.066.009h.066v-1ZM5.12 27.52l-.68.733.004.004.676-.737ZM.213 17.067v-1H-.841l.055 1.053.999-.053Zm10.24 0 .986-.164-.139-.836h-.847v1Zm1.92 3.413-.707.707.038.038.042.034.627-.779ZM16 21.76l-.001 1H16v-1Zm3.627-1.28.624.781.044-.035.04-.039-.708-.707Zm1.28-1.28.707.707.131-.131.076-.17-.914-.406Zm.004-.009-.894-.447-.01.02-.01.02.914.407Zm.423-1.271-.707-.707-.293.293v.414h1Zm.213-.853v-1h-1v1h1Zm10.24-1.92v1l.447-1.894-.447.894Zm-10.24 0-.99.141.123.859h.867v-1Zm-1.92-3.627.707-.707-.04-.04-.043-.034-.624.781Zm-7.254 0-.624-.781-.044.035-.04.039.708.707Zm-2.133 3.627v1h.755l.207-.726-.962-.274Zm-10.027 0-.999-.05-.052 1.05H.213v-1ZM5.12 4.48l-.68-.733-.014.013-.013.013.707.707Zm21.759 0-.68.733.007.007.009.007.664-.747Zm4.053 5.973.949-.316-.005-.013-.004-.013-.94.342Zm.853 4.693h-1v.618l.553.276.447-.894Zm-.992 1.81c-.206 1.862-.617 3.677-1.205 5.05l1.838.788c.692-1.613 1.135-3.638 1.355-5.617l-1.988-.22Zm-1.18 4.997-.64 1.28 1.788.894.64-1.28-1.788-.894Zm-.64 1.28c-.076.152-.151.265-.258.425-.107.16-.245.367-.383.643l1.79.892c.075-.15.15-.264.257-.425.106-.16.245-.366.383-.642l-1.79-.892Zm-.578.959c-.178.267-.409.545-.683.875-.26.31-.562.673-.81 1.046l1.665 1.108c.177-.267.407-.545.681-.874.26-.31.562-.673.81-1.045l-1.663-1.11Zm-1.368 1.768-.853.853 1.414 1.414.853-.853-1.414-1.414Zm-.81.813c-1.833 1.629-3.833 2.819-6 3.41l.527 1.929c2.528-.69 4.794-2.06 6.802-3.845l-1.33-1.494Zm-6.107 3.446c-.414.165-.9.26-1.492.337-.544.07-1.273.136-1.928.245l.328 1.972c.625-.104 1.176-.145 1.859-.234.634-.083 1.322-.202 1.976-.464l-.744-1.856Zm-3.256.568h-2.987v2h2.987v-2Zm-2.855.009c-2.971-.397-5.774-1.786-8.203-4.013l-1.352 1.474c2.691 2.467 5.862 4.064 9.29 4.521L14 30.796ZM5.8 26.787c-2.798-2.598-4.388-5.981-4.588-9.773l-1.998.106c.228 4.314 2.05 8.184 5.226 11.133l1.36-1.466Zm-5.587-8.72h10.24v-2H.213v2Zm9.254-.836c.256 1.542 1.03 2.79 2.2 3.956l1.413-1.414c-.966-.965-1.471-1.852-1.64-2.87l-1.973.328Zm2.28 4.028a6.797 6.797 0 0 0 4.252 1.501l.002-2A4.796 4.796 0 0 1 13 19.7l-1.254 1.56ZM16 22.76a6.797 6.797 0 0 0 4.251-1.499L19.003 19.7A4.797 4.797 0 0 1 16 20.76v2Zm4.334-1.573 1.28-1.28-1.414-1.414-1.28 1.28 1.414 1.414Zm1.487-1.58.004-.01-1.828-.812-.004.009 1.828.812Zm-.016.031c.184-.367.529-1.012.529-1.718h-2c0 .142-.077.343-.317.824l1.788.894Zm.236-1.01c.329-.33.428-.741.466-.97.042-.253.04-.49.04-.591h-2c0 .054 0 .1-.002.148a1.002 1.002 0 0 1-.011.114c-.005.03-.009.034-.003.02a.433.433 0 0 1 .096-.136l1.414 1.414Zm-.494-.561h10.24v-2h-10.24v2Zm10.24-3.92h-10.24v2h10.24v-2Zm-9.25.859c-.25-1.755-1.02-3.01-2.203-4.193l-1.414 1.414c.951.951 1.461 1.83 1.637 3.061l1.98-.282Zm-2.286-4.267C19.021 9.755 17.737 9.24 16 9.24v2c1.25 0 2.1.34 3.003 1.061l1.248-1.562ZM16 9.24c-1.737 0-3.02.515-4.251 1.499l1.248 1.562C13.9 11.58 14.75 11.24 16 11.24v-2Zm-4.334 1.573c-1.185 1.185-1.914 2.4-2.388 4.06l1.924.548c.378-1.327.93-2.245 1.878-3.194l-1.414-1.414Zm-1.426 3.334H.213v2H10.24v-2Zm-9.028 1.05c.199-3.99 1.781-7.176 4.615-10.01L4.413 3.773c-3.14 3.14-4.972 6.78-5.199 11.324l1.998.1ZM5.8 5.213c2.824-2.621 6-4 9.773-4v-2C11.24-.787 7.59.823 4.44 3.747L5.8 5.213Zm9.773-4h.853v-2h-.853v2Zm.853 0c3.773 0 6.95 1.378 9.772 4l1.362-1.466C24.41.821 20.759-.787 16.426-.787v2Zm9.789 4.014c1.793 1.595 2.98 3.375 3.777 5.568l1.88-.684c-.909-2.499-2.282-4.56-4.329-6.378l-1.328 1.494Zm3.768 5.543c.41 1.23.802 2.821.802 4.376h2c0-1.857-.46-3.679-.904-5.01l-1.898.634Zm1.355 5.27.002.001.894-1.788-.002-.001-.894 1.788ZM16 13.587c1.042 0 1.662.239 2.02.565.34.31.607.853.607 1.848h2c0-1.35-.373-2.515-1.26-3.325-.868-.793-2.062-1.088-3.367-1.088v2ZM18.627 16c0 .997-.27 1.615-.64 1.986-.372.372-.99.641-1.987.641v2c1.35 0 2.545-.371 3.4-1.227.856-.855 1.227-2.05 1.227-3.4h-2ZM16 18.627c-.997 0-1.615-.27-1.986-.64-.372-.372-.641-.99-.641-1.987h-2c0 1.35.37 2.545 1.226 3.4.856.856 2.051 1.227 3.401 1.227v-2ZM13.373 16c0-.996.268-1.538.607-1.848.358-.326.978-.565 2.02-.565v-2c-1.305 0-2.498.294-3.368 1.088-.886.81-1.259 1.974-1.259 3.325h2Z" mask="url(#a)"/></svg>